<?xml version="1.0" encoding="UTF-8" standalone="no"?>
<!-- Created with Inkscape (http://www.inkscape.org/) -->

<svg
   width="99.831772mm"
   height="135.64844mm"
   viewBox="0 0 99.831772 135.64844"
   version="1.1"
   id="svg1"
   xml:space="preserve"
   xmlns:inkscape="http://www.inkscape.org/namespaces/inkscape"
   xmlns:sodipodi="http://sodipodi.sourceforge.net/DTD/sodipodi-0.dtd"
   xmlns="http://www.w3.org/2000/svg"
   xmlns:svg="http://www.w3.org/2000/svg"><sodipodi:namedview
     id="namedview1"
     pagecolor="#505050"
     bordercolor="#eeeeee"
     borderopacity="1"
     inkscape:showpageshadow="0"
     inkscape:pageopacity="0"
     inkscape:pagecheckerboard="0"
     inkscape:deskcolor="#505050"
     inkscape:document-units="mm" /><defs
     id="defs1" /><g
     inkscape:label="Capa 1"
     inkscape:groupmode="layer"
     id="layer1"
     transform="translate(5.8947212,-84.066106)"><path
       style="fill:#ff8080;stroke:none"
       d="m 44.543851,84.253323 c -2.60384,0.40667 -5.04483,1.30919 -7.14272,2.92736 -11.47041,8.84747 -4.07486,29.068727 10.84689,26.738227 2.54964,-0.39821 5.09648,-1.26459 7.14355,-2.87082 11.34117,-8.89877 4.14769,-29.136767 -10.84772,-26.794767 m 0.26459,3.66742 c 14.50526,-2.09016 17.86689,20.419657 3.175,22.333597 -14.32057,1.86557 -17.45062,-20.276537 -3.175,-22.333597 m -17.72708,52.308077 c -1.48715,7.66846 -6.00136,19.79621 -1.25759,26.98362 1.17074,1.77383 3.1317,3.13273 4.69717,4.54671 3.27754,2.96036 6.58957,5.90769 9.78958,8.95092 1.45103,1.37994 3.99847,2.87749 4.75393,4.78618 0.79719,2.01412 0.27315,4.98303 0.27315,7.12007 0,7.08569 -1.82277,16.98595 1.85209,23.28333 h -24.07708 c 1.87099,-2.27687 2.53761,-5.22445 3.55186,-7.9375 2.06296,-5.51822 3.91633,-11.11851 5.89168,-16.66875 0.90578,-2.54503 3.10013,-6.27444 2.92899,-8.99583 -0.13164,-2.09337 -2.81935,-3.84545 -4.09492,-5.29167 -2.11583,-2.39888 -4.42051,-4.62497 -6.69011,-6.87896 -0.8177,-0.81207 -1.83642,-2.07006 -3.14642,-1.73245 -1.12964,0.29114 -1.45814,1.83616 -1.78962,2.79058 -0.98242,2.82869 -2.03573,5.6326 -3.00228,8.46667 -2.6273,7.70361 -5.4217,15.37365 -8.2153496,23.01874 -1.63497,4.47423 -3.08661,9.13334 0.27867,13.22917 -3.96748,0 -7.9392,-0.0543 -11.90625,0.001 -1.30593,0.0182 -3.30752,0.59594 -2.70239,2.36859 0.68806,2.01556 4.24975,1.33456 5.87739,1.33456 h 18.2562496 57.41458 13.49374 c 1.44016,0 3.95068,0.43418 4.55447,-1.33456 1.09446,-3.206 -5.36411,-2.36961 -6.93571,-2.36961 h -24.60625 c 2.16578,-3.71138 1.85208,-7.49105 1.85208,-11.64167 V 186.2663 c 0,-3.62554 0.43231,-7.40969 -1.68346,-10.58333 -2.61466,-3.922 -7.03133,-6.90079 -10.48737,-10.05417 -1.12975,-1.0308 -3.59129,-2.476 -3.99713,-4.01366 -0.65646,-2.48728 1.12299,-7.17934 1.55055,-9.74467 1.03802,-6.22816 1.81863,-12.51012 2.49047,-18.78542 0.32797,-3.06336 0.91254,-6.45041 0.39912,-9.525 -0.8225,-4.92545 -5.2141,-7.81897 -9.96801,-7.93362 -1.95309,-0.0471 -3.92023,0.26204 -5.82084,0.6976 -6.50954,1.49178 -12.41127,4.89667 -17.99166,8.44972 -2.38,1.51534 -5.36535,3.27747 -6.95797,5.66547 -2.4570396,3.68413 -3.1654896,9.54978 -4.5101696,13.75833 -1.13721,3.55925 -3.64022,8.39408 -3.26891,12.17083 0.70696,7.19071 9.7016696,11.04721 14.9526396,5.53155 5.25245,-5.51722 3.70023,-15.7224 8.25108,-21.67113 m 12.96458,-20.82634 c 3.68279,-0.45228 7.90531,0.56825 8.85578,4.68676 0.66845,2.89651 -0.31623,6.597 -0.60898,9.525 -0.68996,6.90059 -1.55641,13.7938 -2.71199,20.6375 -0.36401,2.15578 -2.19138,6.44103 -1.60669,8.46666 0.50183,1.73856 2.75799,3.06102 4.00938,4.24273 3.55627,3.35825 8.05073,6.37701 10.98285,10.31323 2.31625,3.10944 1.45256,7.69265 1.45256,11.37321 0,7.23498 0.84741,15.05027 -0.049,22.225 -0.32012,2.56226 -2.41283,4.66171 -4.97808,4.97808 -3.50573,0.43236 -6.25643,-2.34443 -6.34613,-5.77183 -0.16386,-6.2613 0.0264,-12.55847 -0.004,-18.78542 -0.0119,-2.45796 0.50665,-6.05447 -0.94318,-8.20208 -3.40933,-5.05021 -9.88105,-9.36463 -14.40285,-13.44884 -2.87937,-2.60072 -5.51316,-4.20414 -6.00968,-8.24699 -0.76407,-6.22147 1.63378,-13.47385 2.7326,-19.57917 0.34676,-1.92668 1.89402,-5.91533 0.44138,-7.61902 -1.96701,-2.30696 -6.52864,3.42333 -7.39077,4.97319 -3.03617,5.45813 -3.61726,12.25608 -6.03602,17.99166 -1.10677,2.62449 -3.88439,4.49693 -6.75606,3.40141 -6.3356896,-2.41702 -1.1216696,-11.94325 0.26438,-16.10141 1.24034,-3.72101 1.93745,-8.92303 4.15453,-12.16695 1.35661,-1.98491 3.9339,-3.37008 5.89964,-4.67818 5.63853,-3.75215 12.22521,-7.37638 19.05,-8.21454 m 16.17877,13.42556 c -1.77302,1.03676 -1.77244,6.81518 -2.09053,8.7237 -0.33527,2.01164 -1.70407,5.71567 -0.92624,7.64821 0.78858,1.95926 4.47532,3.6995 6.15258,4.89867 3.62713,2.59323 7.21744,5.23742 10.84792,7.82603 3.06306,2.18404 6.10421,4.15108 9.78958,1.81677 3.73777,-2.36751 5.55697,-8.05675 2.85121,-11.86052 -1.30532,-1.83503 -3.48208,-3.08082 -5.23246,-4.4528 -3.83471,-3.00573 -7.80685,-5.83649 -11.64167,-8.84231 -2.17776,-1.70697 -4.39601,-3.36853 -6.61458,-5.02218 -0.8691,-0.6478 -2.04493,-1.37345 -3.13581,-0.73557 m 2.60664,4.75495 c 3.17407,2.74666 6.69531,5.18725 10.05417,7.7064 2.12751,1.59563 4.22257,3.23225 6.35,4.82782 1.53868,1.15401 3.97457,2.40206 4.8756,4.15821 1.34436,2.62024 -1.01149,6.96651 -4.08185,6.81547 -2.67351,-0.13151 -6.10592,-3.7398 -8.20208,-5.28227 -3.0531,-2.24663 -8.59643,-4.79035 -10.67786,-7.95282 -0.50506,-0.76736 -0.20822,-1.76341 -0.0578,-2.5999 0.40609,-2.25796 0.43879,-5.77942 1.7398,-7.67291 m -35.71875,35.98333 c 1.77422,2.17869 3.83623,4.10069 5.82083,6.08542 0.79823,0.79827 2.1566,1.76116 2.43719,2.91041 0.50839,2.0823 -1.95515,6.46203 -2.68769,8.46667 -2.50573,6.85713 -4.24802,14.27082 -7.29502,20.90208 -1.198,2.60723 -3.64883,4.01184 -6.47739,3.65517 -3.60473,-0.45453 -5.0805196,-4.42566 -4.35808,-7.62392 1.86365,-8.25035 5.7799,-16.67832 8.74371,-24.60625 1.09336,-2.92463 1.74774,-7.44289 3.81645,-9.78958 z"
       id="path3" /></g></svg>
