<?xml version="1.0" encoding="UTF-8" standalone="no"?>
<!-- Created with Inkscape (http://www.inkscape.org/) -->

<svg
   width="118.98939mm"
   height="76.131126mm"
   viewBox="0 0 118.98939 76.131126"
   version="1.1"
   id="svg1"
   xml:space="preserve"
   xmlns:inkscape="http://www.inkscape.org/namespaces/inkscape"
   xmlns:sodipodi="http://sodipodi.sourceforge.net/DTD/sodipodi-0.dtd"
   xmlns="http://www.w3.org/2000/svg"
   xmlns:svg="http://www.w3.org/2000/svg"><sodipodi:namedview
     id="namedview1"
     pagecolor="#505050"
     bordercolor="#eeeeee"
     borderopacity="1"
     inkscape:showpageshadow="0"
     inkscape:pageopacity="0"
     inkscape:pagecheckerboard="0"
     inkscape:deskcolor="#505050"
     inkscape:document-units="mm" /><defs
     id="defs1" /><g
     inkscape:label="Capa 1"
     inkscape:groupmode="layer"
     id="layer1"
     transform="translate(-57.300409,-105.27955)"><path
       style="fill:#00ffff;stroke:none"
       d="m 122.34559,105.44254 c -1.54875,0.60811 -1.33446,2.41769 -1.33455,3.77133 v 10.84792 46.30208 c 0,4.2073 -0.25149,8.50157 0.0116,12.7 0.0941,1.50126 1.2734,2.81746 2.88715,2.18383 1.54876,-0.60811 1.33446,-2.41769 1.33455,-3.77133 v -10.84792 -46.30208 c 0,-4.20731 0.25149,-8.50156 -0.0116,-12.7 -0.0941,-1.50126 -1.27339,-2.81745 -2.88714,-2.18383 m -50.799999,2.11667 c -1.46552,0.57542 -1.33405,2.20825 -1.33455,3.50675 v 10.31874 43.65625 c 0,3.98117 -0.41553,8.21576 0.0288,12.17062 0.15946,1.41939 1.419,2.48919 2.86999,1.91946 1.46553,-0.57543 1.33406,-2.20825 1.33456,-3.50675 v -10.31874 -43.65625 c 0,-3.98117 0.41552,-8.21576 -0.0288,-12.17063 -0.15946,-1.41938 -1.419,-2.48918 -2.87,-1.91945 m 88.899999,2.11667 c -1.46553,0.57543 -1.33405,2.20825 -1.33456,3.50674 v 9.525 41.01042 c 0,3.72214 -0.38664,7.67919 0.0288,11.37688 0.15946,1.41937 1.41899,2.48918 2.87,1.91944 1.46552,-0.57543 1.33405,-2.20824 1.33455,-3.50674 v -9.525 -41.01042 c 0,-3.72214 0.38664,-7.67919 -0.0288,-11.37688 -0.15946,-1.41936 -1.41901,-2.48917 -2.86999,-1.91944 m -31.75,2.11666 c -1.3743,0.53962 -1.33249,2.0033 -1.33455,3.24216 v 8.99584 38.62916 c 0,3.36744 -0.5513,7.27222 0.0604,10.58232 0.24325,1.31626 1.53504,2.16742 2.83835,1.65568 1.37431,-0.53962 1.33248,-2.00329 1.33455,-3.24216 v -8.99584 -38.62916 c 0,-3.36745 0.5513,-7.27221 -0.0604,-10.58232 -0.24325,-1.31626 -1.53506,-2.16741 -2.83835,-1.65568 m -44.449999,4.23333 c -2.5203,0.98958 -1.33455,8.39357 -1.33455,10.6505 v 33.60208 c 0,2.78342 -0.44543,5.99301 0.0604,8.73023 0.24325,1.31627 1.53505,2.16743 2.83835,1.65569 2.5203,-0.98959 1.33455,-8.39357 1.33455,-10.6505 v -33.60208 c 0,-2.78342 0.44543,-5.99302 -0.0604,-8.73023 -0.24326,-1.31628 -1.53504,-2.16742 -2.83835,-1.65569 m 19.049999,0 c -2.5203,0.98958 -1.33455,8.39357 -1.33455,10.6505 v 33.60208 c 0,2.78342 -0.44543,5.99302 0.0604,8.73023 0.24325,1.31627 1.53505,2.16743 2.83835,1.65569 2.5203,-0.98959 1.33455,-8.39357 1.33455,-10.6505 v -33.60208 c 0,-2.78342 0.44543,-5.99302 -0.0604,-8.73023 -0.24326,-1.31628 -1.53504,-2.16742 -2.83835,-1.65569 m 50.8,2.11667 c -2.45471,0.96382 -1.33455,7.686 -1.33455,9.85675 v 30.95625 c 0,2.49977 -0.56568,5.78853 0.11473,8.19799 0.33653,1.1917 1.61127,1.85466 2.78405,1.39417 2.4547,-0.96383 1.33455,-7.68599 1.33455,-9.85675 V 127.7347 c 0,-2.49975 0.56568,-5.78855 -0.11474,-8.19799 -0.33653,-1.1917 -1.61126,-1.85465 -2.78404,-1.39417 m -19.05,2.11667 c -2.38409,0.93609 -1.33455,6.98015 -1.33455,9.06299 v 28.575 c 0,1.96125 -1.11068,10.10814 2.89878,8.53383 2.38408,-0.9361 1.33455,-6.98014 1.33455,-9.06299 v -28.575 c 0,-1.96127 1.11069,-10.10812 -2.89878,-8.53383 m -69.849999,4.23333 c -2.22083,0.87199 -1.33455,5.57634 -1.33455,7.4755 v 23.54791 c 0,1.85533 -0.79358,8.13155 2.89878,6.68175 2.22082,-0.87199 1.33455,-5.57632 1.33455,-7.4755 v -23.54791 c 0,-1.85535 0.79359,-8.13153 -2.89878,-6.68175 m 50.799999,2.11667 c -2.12272,0.83347 -1.33455,4.88051 -1.33455,6.68174 v 20.90209 c 0,1.81633 -0.59095,7.25823 2.89878,5.88799 2.12273,-0.83347 1.33455,-4.88051 1.33455,-6.68174 V 132.4972 c 0,-1.81634 0.59094,-7.25821 -2.89878,-5.88799 m -25.399999,2.11666 c -2.04834,0.80427 -1.33455,4.42008 -1.33455,6.15258 v 18.25625 c 0,1.76781 -0.23011,6.05822 2.89878,4.82967 2.04834,-0.80427 1.33455,-4.42007 1.33455,-6.15258 v -18.25625 c 0,-1.76781 0.23011,-6.0582 -2.89878,-4.82967 m 50.799999,0 c -2.04834,0.80428 -1.33455,4.42008 -1.33455,6.15258 v 18.25625 c 0,1.76781 -0.23011,6.05822 2.89878,4.82967 2.04834,-0.80428 1.33455,-4.42008 1.33455,-6.15258 v -18.25625 c 0,-1.76781 0.2301,-6.0582 -2.89878,-4.82967 m 25.4,0 c -2.04834,0.80428 -1.33456,4.42008 -1.33456,6.15258 v 18.25625 c 0,1.76781 -0.23011,6.05822 2.89879,4.82967 2.04834,-0.80428 1.33455,-4.42008 1.33455,-6.15258 v -18.25625 c 0,-1.76781 0.2301,-6.0582 -2.89878,-4.82967 m -107.949997,4.23334 c -1.756828,0.6898 -1.334553,3.06667 -1.334553,4.56508 0,4.6719 -0.492575,9.64663 0.02878,14.28729 0.159463,1.41939 1.419001,2.48919 2.869991,1.91945 1.75683,-0.6898 1.33456,-3.06667 1.33456,-4.56508 0,-4.67191 0.49257,-9.64662 -0.0288,-14.28729 -0.15946,-1.41939 -1.419,-2.48918 -2.869998,-1.91945 m 50.799997,0 c -1.75683,0.6898 -1.33455,3.06667 -1.33455,4.56508 0,4.67191 -0.49258,9.64662 0.0288,14.28729 0.15946,1.41938 1.419,2.48919 2.86999,1.91945 1.75682,-0.6898 1.33455,-3.06666 1.33455,-4.56508 0,-4.6719 0.49258,-9.64663 -0.0288,-14.28729 -0.15947,-1.41939 -1.419,-2.48918 -2.87,-1.91945 m -12.699999,2.11666 c -1.46552,0.57543 -1.33405,2.20826 -1.33455,3.50675 -10e-4,3.61704 -0.59654,7.82114 0.0604,11.37607 0.24326,1.31626 1.53505,2.16742 2.83835,1.65568 1.46553,-0.57544 1.33406,-2.20825 1.33456,-3.50675 0.001,-3.61704 0.596539,-7.82114 -0.0604,-11.37607 -0.24326,-1.31627 -1.53505,-2.16741 -2.83836,-1.65568 m 50.799999,2.11667 c -0.94491,0.37101 -1.26398,1.24324 -1.32292,2.18383 -0.15932,2.54217 -0.58935,6.27509 0.1031,8.72716 0.33653,1.1917 1.61127,1.85466 2.78405,1.39417 0.94489,-0.371 1.26396,-1.24324 1.32291,-2.18383 0.15932,-2.54216 0.58936,-6.27509 -0.1031,-8.72716 -0.33653,-1.19169 -1.61126,-1.85465 -2.78404,-1.39417 m -69.849989,2.11667 c -2.43242,0.95507 -2.16548,9.53628 1.56422,8.07182 2.43242,-0.95507 2.16549,-9.53627 -1.56422,-8.07182 m 95.249989,0 c -2.43243,0.95507 -2.16547,9.53628 1.56423,8.07182 2.43241,-0.95507 2.16548,-9.53627 -1.56423,-8.07182 z"
       id="path1"
       inkscape:export-filename="Audio.svg"
       inkscape:export-xdpi="96"
       inkscape:export-ydpi="96" /></g></svg>
