<?xml version="1.0" encoding="UTF-8" standalone="no"?>
<!-- Created with Inkscape (http://www.inkscape.org/) -->

<svg
   width="135.36319mm"
   height="135.98306mm"
   viewBox="0 0 135.36319 135.98306"
   version="1.1"
   id="svg1"
   xml:space="preserve"
   xmlns:inkscape="http://www.inkscape.org/namespaces/inkscape"
   xmlns:sodipodi="http://sodipodi.sourceforge.net/DTD/sodipodi-0.dtd"
   xmlns="http://www.w3.org/2000/svg"
   xmlns:svg="http://www.w3.org/2000/svg"><sodipodi:namedview
     id="namedview1"
     pagecolor="#505050"
     bordercolor="#eeeeee"
     borderopacity="1"
     inkscape:showpageshadow="0"
     inkscape:pageopacity="0"
     inkscape:pagecheckerboard="0"
     inkscape:deskcolor="#505050"
     inkscape:document-units="mm" /><defs
     id="defs1" /><g
     inkscape:label="Capa 1"
     inkscape:groupmode="layer"
     id="layer1"
     transform="translate(-25.936991,-96.946416)"><path
       style="fill:#ffffff;stroke:none"
       d="m 69.503692,145.90593 c -4.04081,0.96071 -5.39209,6.27405 -3.21379,9.5248 0.76507,1.14173 2.53401,1.76904 3.05414,2.96696 0.7114,1.63841 0.15977,4.52051 0.15965,6.29366 -2e-4,3.0827 -1.60098,3.00516 -3.14641,5.29554 -1.3869,2.05543 -1.37666,4.84279 -0.62411,7.13987 1.23721,3.77648 4.55566,6.75553 8.53302,7.32892 1.75679,0.25326 3.92882,-0.38882 5.55625,0.42709 8.30245,4.16244 14.20408,12.88516 22.489578,17.11483 -5.455638,5.02148 -11.664608,9.35042 -17.462498,13.97024 -2.43646,1.9414 -5.67977,3.85069 -7.50408,6.40287 -3.5578,4.97733 1.40899,11.82024 7.2395,9.99558 2.61573,-0.81859 4.74471,-3.10603 6.87917,-4.73474 4.7906,-3.65548 9.549428,-7.35833 14.287498,-11.08187 1.73804,-1.36589 5.18244,-5.23253 7.40833,-5.41702 0.87196,-0.0723 1.74766,0.86613 2.38125,1.35578 1.76804,1.3664 3.53329,2.73795 5.29167,4.11677 4.74778,3.72294 9.53973,7.38957 14.2875,11.1125 2.33991,1.83482 4.87582,4.46434 7.93749,4.89193 5.47146,0.76414 9.27885,-5.79458 6.13829,-10.23811 -1.96409,-2.77897 -5.60046,-4.84589 -8.25495,-6.93592 -3.62876,-2.85714 -7.24153,-5.73744 -10.84792,-8.62264 -1.81985,-1.45593 -3.66403,-3.37326 -5.82083,-4.28621 2.05049,-2.67926 5.54634,-4.6577 8.20208,-6.72686 4.43048,-3.45191 9.21808,-8.54817 14.2875,-10.95673 1.56249,-0.74237 3.61672,-0.14613 5.29167,-0.38749 4.00347,-0.57689 7.44999,-3.46048 8.67306,-7.32892 0.82935,-2.62312 0.84255,-5.49359 -1.05649,-7.66883 -0.73737,-0.84462 -2.2492,-1.41629 -2.69442,-2.44168 -0.78625,-1.8108 -0.31735,-5.65295 -0.14414,-7.61555 0.13986,-1.58477 1.58148,-1.9586 2.58133,-2.96043 1.2659,-1.26842 1.98595,-3.19029 1.87617,-4.97809 -0.22754,-3.7056 -4.4503,-4.66588 -4.47281,-7.9375 -0.074,-10.75855 -2e-4,-21.52032 -2e-4,-32.27916 0,-3.94384 1.13876,-9.46968 -2.12729,-12.379077 -2.65564,-2.36565 -9.20684,-2.49443 -12.16001,-0.59347 -1.58488,1.0202 -2.21559,3.353877 -4.23455,3.442437 -11.59122,0.50844 -23.32021,0.005 -34.92398,0.005 H 92.257862 c -1.4638,0 -3.62871,0.39857 -4.99952,-0.15965 -1.24795,-0.50819 -1.83764,-2.264477 -2.94186,-3.071077 -3.10871,-2.27084 -10.46555,-2.08828 -13.08524,0.89827 -2.8473,3.246027 -1.72755,9.193787 -1.72755,13.180367 v 33.3375 m 13.22917,-0.52916 h -8.73125 v -33.07292 c 0,-2.339 -1.19412,-9.45375 1.34782,-10.54413 1.77813,-0.76274 6.28735,-0.81786 7.14702,1.29535 1.34993,3.31835 0.23641,9.1126 0.23641,12.68836 v 29.63334 m 69.849988,0 h -8.73125 v -29.63334 c 0,-3.56909 -1.12108,-9.37888 0.1964,-12.69509 0.82774,-2.0835 5.1647,-2.05745 6.94327,-1.35599 2.83145,1.11669 1.59158,8.11341 1.59158,10.6115 v 33.07292 m -12.96458,-39.42292 v 22.225 c 0,1.7955 0.85647,6.61772 -0.27193,8.04243 -0.61907,0.78164 -2.555,0.42424 -3.43223,0.42424 h -9.525 -39.422918 v -30.69167 h 52.652078 m -48.154158,4.49792 v 4.23333 h 4.23333 v -4.23333 h -4.23333 m 8.731248,0 v 4.23333 h 34.925 v -4.23333 h -34.925 m 39.42291,56.62083 H 86.966192 c 0,-2.406 -0.78983,-6.46269 0.15965,-8.67593 1.11088,-2.58946 4.32744,-3.11516 4.21659,-6.66991 -0.10234,-3.28183 -2.66415,-3.8767 -4.1043,-6.18566 -0.7035,-1.12788 -0.27194,-3.37105 -0.27194,-4.66225 h 39.422918 9.525 c 0.87722,0 2.81317,-0.35739 3.43223,0.42423 2.74688,3.4682 -3.89995,6.8647 -4.17617,10.1591 -0.31979,3.81409 3.11857,4.21792 4.28845,6.9347 0.95124,2.20902 0.15965,6.27285 0.15965,8.67572 M 71.356802,149.72484 c 1.51726,-0.4209 3.45985,-0.11474 5.02606,-0.11474 2.76558,0 6.02034,-0.47249 8.73023,0.0911 2.05238,0.42679 2.53993,3.2669 0.51855,4.13983 -2.75503,1.18977 -7.58711,0.26703 -10.5717,0.26703 -1.2208,0 -2.80911,0.25934 -3.96467,-0.19639 -2.08178,-0.82103 -1.85231,-3.60039 0.26153,-4.18678 m 69.850198,0 c 1.51606,-0.42194 3.46056,-0.11474 5.02585,-0.11474 2.78558,0 5.99105,-0.4423 8.73105,0.0604 1.99206,0.3655 2.65666,3.05765 0.76537,4.08879 -1.1099,0.60512 -2.72276,0.34869 -3.94017,0.34869 -3.10826,0 -7.94253,0.91592 -10.84301,-0.23641 -2.01986,-0.80247 -1.80495,-3.57181 0.26091,-4.14676 m -58.474138,8.61651 v 8.73125 h -8.73125 v -8.73125 h 8.73125 m 69.849988,0 v 8.73125 h -8.73125 v -8.73125 h 8.73125 m -90.222908,56.88541 c 1.67931,0 3.4082,0.11579 5.02709,-0.423 5.72574,-1.90564 4.23333,-9.46653 4.23333,-14.12908 0,-2.82895 0.70003,-6.62151 -1.16245,-8.99482 -2.97273,-3.78802 -8.60733,-2.64685 -12.86047,-2.64685 l -0.79375,-4.49791 c 4.80614,-0.7501 5.89201,-10.05036 1.84821,-12.41174 -1.85464,-1.08301 -4.80638,-0.55285 -6.87529,-0.55285 h -12.43542 c -1.9055,0 -4.25075,-0.36272 -6.08541,0.21273 -3.47007,1.08839 -3.66386,6.8886 -2.7377,9.84144 0.54239,1.72929 3.15052,2.24063 3.40222,3.73275 0.48833,2.89498 -1.22054,7.398 -1.77491,10.29017 -1.43416,7.48206 -2.67768,15.00115 -4.07838,22.48958 l -1.79329,9.78958 c -0.25716,1.37481 -0.78185,3.04341 0.4279,4.1186 1.61998,1.43978 5.83134,0.6439 7.87707,0.6439 h 21.43125 c 2.0323,0 7.19847,0.92456 8.57161,-0.85418 0.94615,-1.22563 0.25206,-3.34527 0.007,-4.70207 -0.71288,-3.95249 -1.22288,-8.01754 -2.22895,-11.90625 m 8.73533,-43.54151 c 1.81053,-0.51129 4.20716,-0.11474 6.08133,-0.11474 h 12.96458 42.333328 15.875 c 2.07064,0 5.19578,-0.58541 7.13885,0.15965 3.19377,1.22463 0.61815,5.81905 -1.05445,7.14538 -2.08381,1.65242 -4.64631,1.42622 -7.14273,1.42622 H 133.79709 94.374172 c -6.16673,0 -13.24923,0.97107 -19.31458,-0.1229 -2.54052,-0.45821 -4.5359,-2.14333 -5.28003,-4.6396 -0.42924,-1.43996 -0.43036,-3.36103 1.31537,-3.85401 m -14.55617,4.1186 v 4.49791 h -21.96037 v -4.49791 h 21.96042 m 3.70417,52.65208 h -19.84375 l -9.78959,-0.26459 7.9375,-43.65624 h 9.78959 l 3.81951,0.27193 0.89093,2.90307 1.44112,7.9375 3.79971,20.90208 1.95498,11.90625 m 49.477078,-32.27917 v 0.26459 c -0.95778,0.77203 -2.65309,2.73892 -3.96875,2.64011 -1.61012,-0.12092 -3.78839,-2.58104 -5.02709,-3.54615 -4.362568,-3.399 -10.283958,-6.7049 -13.758328,-11.00021 l 7.9375,0.14923 5.02708,3.71377 9.789588,7.77866 m 14.55208,-11.64166 -7.9375,6.66745 -3.175,1.99704 -3.43958,-2.36716 -7.67292,-6.03275 6.87917,-0.26458 h 15.34583 m 15.34583,0 c -3.96751,4.54009 -10.05668,8.04531 -14.81666,11.75395 -9.6901,7.54983 -19.37133,15.11556 -29.104168,22.61044 -3.44792,2.65511 -6.84757,5.37477 -10.31875,7.99935 -1.219,0.9217 -3.29183,2.12575 -4.49444,0.43832 -1.20912,-1.69655 0.64463,-3.20175 1.84861,-4.1727 3.50662,-2.82793 7.04382,-5.62427 10.58333,-8.41114 8.751478,-6.89055 17.442268,-13.85839 26.193748,-20.74895 3.55983,-2.80287 7.69867,-7.55937 11.90625,-9.24246 2.23465,-0.89389 5.80951,-0.22681 8.20208,-0.22681 m -81.227078,8.73125 c 2.09384,0 6.13622,-0.77223 7.90872,0.46097 1.25994,0.87661 1.08703,2.42327 1.08712,3.77236 v 8.46667 c 0,1.13426 0.25073,2.65604 -0.31195,3.68885 -0.72334,1.3277 -3.85204,1.96343 -5.10834,1.0663 -1.05496,-0.75338 -1.05324,-3.56478 -1.26044,-4.75515 -0.73764,-4.23783 -1.51865,-8.47278 -2.31511,-12.7 m 58.472918,14.81666 c 0.72966,-0.95341 2.61924,-3.10154 3.96875,-2.84366 2.00499,0.38315 4.50887,3.32932 6.08541,4.58999 4.48134,3.58347 9.01314,7.10448 13.49375,10.68909 1.56256,1.25008 4.60815,2.85812 5.35965,4.77291 0.56841,1.44831 -0.5746,3.16593 -2.18465,2.96697 -1.81185,-0.22391 -3.62874,-2.28602 -5.02708,-3.34098 -1.34157,-1.01213 -2.63292,-2.0873 -3.96875,-3.10661 -2.39314,-1.82609 -4.77682,-3.6655 -7.14375,-5.52563 -3.50605,-2.75533 -7.00091,-5.54688 -10.58333,-8.20208 z"
       id="path5" /></g></svg>
