<?xml version="1.0" encoding="UTF-8" standalone="no"?>
<!-- Created with Inkscape (http://www.inkscape.org/) -->

<svg
   width="123.18639mm"
   height="68.262512mm"
   viewBox="0 0 123.18639 68.262512"
   version="1.1"
   id="svg1"
   xml:space="preserve"
   xmlns:inkscape="http://www.inkscape.org/namespaces/inkscape"
   xmlns:sodipodi="http://sodipodi.sourceforge.net/DTD/sodipodi-0.dtd"
   xmlns="http://www.w3.org/2000/svg"
   xmlns:svg="http://www.w3.org/2000/svg"><sodipodi:namedview
     id="namedview1"
     pagecolor="#505050"
     bordercolor="#eeeeee"
     borderopacity="1"
     inkscape:showpageshadow="0"
     inkscape:pageopacity="0"
     inkscape:pagecheckerboard="0"
     inkscape:deskcolor="#505050"
     inkscape:document-units="mm" /><defs
     id="defs1" /><g
     inkscape:label="Capa 1"
     inkscape:groupmode="layer"
     id="layer1"
     transform="translate(-24.651789,-81.060339)"><path
       style="fill:#ffdd55;stroke:none"
       d="m 89.419989,81.060337 -3.99937,15.34583 -8.5128,31.750003 -3.46102,12.96459 -1.04118,4.94685 2.72688,1.17858 7.93749,2.07665 3.99937,-15.34583 8.51281,-31.75 3.46102,-12.964593 1.041191,-4.94685 -2.726891,-1.21533 -7.9375,-2.0399 m -25.39999,58.208333 v -0.26458 l -17.4625,-17.4625 c -1.2635,-1.26349 -5.80614,-4.50618 -5.80614,-6.35 0,-1.84382 4.54264,-5.0865 5.80614,-6.35 l 17.4625,-17.462503 c -1.5216,-2.16008 -3.68809,-3.95663 -5.55625,-5.82083 -0.58916,-0.5879 -1.45451,-1.79737 -2.38125,-1.79737 -1.93657,0 -5.29094,4.70705 -6.61459,6.0307 l -18.25625,18.256253 -5.02687,5.02708 c -0.53132,0.53525 -1.533,1.27796 -1.533,2.11667 0,0.83873 1.00167,1.58141 1.533,2.11667 l 5.02687,5.02708 18.25625,18.25625 c 1.32365,1.32364 4.67802,6.0307 6.61459,6.0307 0.92674,0 1.79209,-1.20946 2.38125,-1.79737 l 5.55625,-5.55625 M 108.46999,91.114507 v 0.26458 l 17.4625,17.462503 c 1.2635,1.2635 5.80613,4.50619 5.80613,6.35 0,1.84382 -4.54263,5.08651 -5.80613,6.35 l -17.4625,17.4625 c 1.52159,2.16007 3.68809,3.95663 5.55625,5.82083 0.58915,0.5879 1.45452,1.79737 2.38125,1.79737 0.83871,0 1.58142,-1.00166 2.11667,-1.53299 l 5.02708,-5.02688 18.25625,-18.25625 c 1.32365,-1.32364 6.0307,-4.67801 6.0307,-6.61458 0,-1.93657 -4.70705,-5.29093 -6.0307,-6.61458 l -18.25625,-18.256253 -5.02708,-5.02688 c -0.53525,-0.53133 -1.27794,-1.53299 -2.11667,-1.53299 -0.92674,0 -1.7921,1.20947 -2.38125,1.79737 z"
       id="path2" /></g></svg>
