<?xml version="1.0" encoding="UTF-8" standalone="no"?>
<!-- Created with Inkscape (http://www.inkscape.org/) -->

<svg
   width="144.81783mm"
   height="144.10146mm"
   viewBox="0 0 144.81783 144.10146"
   version="1.1"
   id="svg1"
   xml:space="preserve"
   xmlns:inkscape="http://www.inkscape.org/namespaces/inkscape"
   xmlns:sodipodi="http://sodipodi.sourceforge.net/DTD/sodipodi-0.dtd"
   xmlns="http://www.w3.org/2000/svg"
   xmlns:svg="http://www.w3.org/2000/svg"><sodipodi:namedview
     id="namedview1"
     pagecolor="#505050"
     bordercolor="#eeeeee"
     borderopacity="1"
     inkscape:showpageshadow="0"
     inkscape:pageopacity="0"
     inkscape:pagecheckerboard="0"
     inkscape:deskcolor="#505050"
     inkscape:document-units="mm" /><defs
     id="defs1" /><g
     inkscape:label="Capa 1"
     inkscape:groupmode="layer"
     id="layer1"
     transform="translate(-55.622934,-108.46447)"><path
       style="fill:#ff00ff;stroke:none"
       d="m 74.738772,137.80501 v -16.08667 c 0,-1.81217 0.56809,-4.90772 -0.76283,-6.36872 -2.01917,-2.21654 -7.64589,0.25978 -9.67939,1.3767 -9.58724,5.26587 -8.46667,15.70257 -8.46667,25.0298 v 64.9111 c 0,8.81966 -1.87203,19.72176 5.64466,26.16174 6.12152,5.24466 15.11729,3.75382 22.577558,3.75382 h 52.49334 l -9.87778,9.87778 c -1.08872,1.09053 -3.17747,2.71189 -2.55786,4.50314 0.47596,1.37595 1.8958,1.41684 3.1223,1.42331 2.91612,0.0154 5.83273,2.1e-4 8.74889,2.1e-4 h 38.1 18.62667 c 1.81779,0 5.54096,0.70539 6.93316,-0.68683 1.21175,-1.21173 0.68684,-3.95858 0.68684,-5.52206 V 231.785 190.01611 180.13834 c -5.1e-4,-1.31298 0.15878,-3.06528 -1.18922,-3.81784 -2.63059,-1.46862 -7.0835,4.75277 -8.68856,6.35784 v -33.02 c 0,-2.53971 1.21511,-9.6489 -0.93224,-11.40082 -1.0894,-0.88879 -3.3941,-0.45251 -4.71221,-0.45251 h -12.7 c 2.49922,-3.54794 6.24541,-6.52744 9.31334,-9.59556 1.5669,-1.567 3.38049,-3.08093 3.81893,-5.36222 0.74474,-3.87505 -1.87785,-6.24336 -4.38338,-8.74889 -3.2355,-3.2355 -6.9081,-7.56531 -11.85333,-4.69521 -2.7834,1.61542 -5.0749,4.69011 -7.33778,6.95299 l -13.82889,13.82889 c -2.08132,2.08132 -5.27635,6.80119 -8.18444,7.53028 -2.04452,0.51257 -4.66919,0.0897 -6.77333,0.0897 H 119.04766 74.738772 m 97.084438,-24.99104 c 1.99029,-0.48195 3.58194,1.76194 4.79778,2.9777 3.17603,3.17584 6.10985,5.16662 2.25756,9.03111 -0.61129,0.61323 -1.37538,1.65808 -2.25756,1.878 -1.42313,0.35478 -3.35644,-2.41221 -4.23333,-3.28911 -1.2273,-1.2273 -5.30387,-4.10054 -5.30387,-5.92666 0,-1.14634 1.73781,-2.37956 2.48164,-3.10009 0.65402,-0.63354 1.34094,-1.34893 2.25778,-1.57095 M 70.223212,118.8961 c 1.34263,4.54223 0.28223,10.78042 0.28223,15.52222 v 33.02 12.13555 c 0,1.38478 -0.40857,3.5686 0.68682,4.63598 1.18541,1.15509 2.67711,0.37778 3.22248,-0.97145 0.87464,-2.16383 0.32403,-5.31512 0.32403,-7.61564 V 141.7561 h 61.242218 c -1.6373,3.51102 -6.01864,6.58308 -8.74889,9.31333 -1.01499,1.01499 -3.28875,2.58841 -3.10531,4.22897 0.152,1.35947 1.66673,2.06505 2.82309,1.44335 2.22868,-1.1982 4.14752,-3.89317 5.92667,-5.67232 l 23.70666,-23.70667 h 0.28223 l 9.59555,9.59556 v 0.28222 l -43.74444,43.74444 h -0.28222 l -9.59556,-9.59555 v -0.28222 c 2.67923,-2.67924 5.73051,-5.24382 8.11977,-8.18445 0.9806,-1.20689 0.88584,-3.30137 -1.0653,-3.48204 -2.18507,-0.20233 -5.36236,4.32993 -6.77225,5.73982 -1.67846,1.67846 -3.82211,3.33506 -5.08152,5.36222 -1.50387,2.42063 -2.18595,5.7729 -3.10379,8.46667 -1.30524,3.83075 -3.03683,7.62281 -3.95024,11.57111 -2.26841,0 -5.14929,-0.47474 -7.33669,0.16158 -1.12073,0.32602 -2.20644,1.4167 -1.63149,2.64823 0.66884,1.43265 2.25965,1.42127 3.60595,1.42352 h 9.87778 36.12445 8.74888 c 1.2205,-4.6e-4 2.65574,0.14304 3.51951,-0.91112 1.01813,-1.24258 0.0681,-2.70683 -1.26609,-3.13798 -2.21536,-0.71595 -5.30052,-0.18423 -7.61564,-0.18423 h -34.14889 v -0.28222 c 3.91216,-1.27297 8.91888,-2.29736 12.41778,-4.47135 3.67641,-2.28428 6.82017,-6.58216 9.87778,-9.63976 l 20.32,-20.32 9.31333,-9.31334 c 1.42792,-1.42791 2.97411,-3.59587 4.79778,-4.50771 1.31391,-0.65696 3.36495,-0.29006 4.79778,-0.29006 3.83973,0 9.26771,-1.00067 12.94041,0.0897 1.52775,0.45357 0.88848,4.03181 0.88848,5.2725 v 16.36889 16.65111 c 0,1.99424 0.61558,5.24426 -0.29006,7.05555 -1.01339,2.02677 -3.4829,3.77297 -5.07217,5.36222 l -11.00666,11.00667 -11.57111,11.57111 c -1.0146,1.015 -3.50842,2.81632 -2.75624,4.51011 1.59055,3.58167 5.41148,-1.52091 6.70735,-2.81678 l 16.93333,-16.93333 c 5.39674,-5.39674 10.69877,-12.25939 16.93333,-16.65111 v 18.62667 c -1.47092,0 -3.48056,-0.33802 -4.76707,0.52438 -1.39324,0.93393 -1.30704,2.78832 0.26393,3.46679 1.28778,0.55618 3.12578,0.24216 4.50314,0.24216 v 6.49111 c -1.31111,0 -2.99147,-0.27348 -4.23202,0.20949 -1.81539,0.70676 -2.05187,2.76403 -0.27809,3.6911 1.25661,0.65676 3.1332,0.33274 4.51011,0.33274 v 6.49112 c -1.40956,0 -3.49957,-0.38107 -4.76707,0.33274 -1.38118,0.77782 -1.26814,2.49892 0,3.31088 1.34791,0.86304 3.24503,0.58971 4.76707,0.58971 v 6.20889 c -1.47095,0 -3.48054,-0.33804 -4.76707,0.52438 -1.39323,0.93393 -1.30704,2.78832 0.26393,3.46679 1.28779,0.55618 3.12576,0.24216 4.50314,0.24216 v 10.16 h -64.91111 c 4.39173,-6.23457 11.25438,-11.5366 16.65111,-16.93333 1.2707,-1.2707 5.4207,-4.18314 5.05561,-6.20758 -0.30776,-1.70663 -2.19409,-1.85406 -3.36227,-1.00781 -3.0326,2.19683 -5.10801,6.37489 -8.46667,8.05422 -1.68846,0.84422 -4.63607,0.29006 -6.49111,0.29006 h -50.8 c -6.518048,0 -15.227368,1.655 -20.294518,-3.41215 -5.51604,-5.51604 -3.77744,-14.66305 2.79674,-18.47009 2.13005,-1.23349 6.27671,-0.82136 7.74304,-2.70877 0.94603,-1.21769 0.72363,-3.03587 0.72363,-4.47788 0,-3.19839 0.0152,-6.39721 -2.2e-4,-9.59556 -0.007,-1.38978 -0.0319,-3.1921 -1.42722,-3.96461 -1.6189,-0.89631 -2.70633,0.87889 -2.79348,2.27128 -0.18694,2.98659 -0.0124,6.03843 -0.0124,9.03111 0,0.95627 0.32546,2.69494 -0.29006,3.50273 -0.69836,0.9165 -3.15936,1.13046 -4.2255,1.5814 -2.25456,0.95361 -3.93884,2.58777 -5.92666,3.94698 v -67.16888 c 0,-7.1049 -1.73044,-16.63682 4.79799,-21.5164 1.65513,-1.2371 3.42168,-1.85185 5.36201,-2.47249 m 99.342208,15.24 h -0.28222 l -9.59555,-9.59556 c 0.74385,-1.05598 2.51642,-3.61053 3.95111,-3.61053 1.76508,0 4.46377,3.84097 5.64444,5.02164 0.94217,0.94217 3.61053,2.78702 3.61053,4.23334 0,1.38132 -2.42436,3.04716 -3.32831,3.95111 m -51.08222,49.10666 c -3.10036,1.3743 -5.56834,2.64733 -8.18313,-2.1e-4 -0.61944,-0.62719 -1.43412,-1.31871 -1.51303,-2.25757 -0.1476,-1.75633 1.23965,-4.00596 1.79394,-5.64444 2.64738,1.23454 6.66766,5.25485 7.90222,7.90222 m 63.5,27.05435 c -2.36698,0.92527 -4.44581,3.92035 -6.20889,5.68343 l -12.98222,12.98226 c -1.53211,1.53211 -5.55667,4.24839 -4.98593,6.76897 0.53233,2.35093 4.07228,1.6977 5.8326,1.6977 h 13.54666 c 1.83831,0 4.47592,0.47691 6.20367,-0.20949 2.19791,-0.8732 1.69856,-3.83481 1.69856,-5.71718 v -17.21556 c -0.003,-1.85955 -0.36454,-5.06114 -3.10445,-3.99009 m -1.12889,7.09454 v 15.80444 h -15.80444 c 0.93391,-2.00269 2.96777,-3.53221 4.51555,-5.08 3.27599,-3.27598 7.08508,-8.76405 11.28889,-10.72444 z"
       id="path6" /></g></svg>
