<?xml version="1.0" encoding="UTF-8" standalone="no"?>
<!-- Created with Inkscape (http://www.inkscape.org/) -->

<svg
   width="135.39554mm"
   height="134.41463mm"
   viewBox="0 0 135.39554 134.41463"
   version="1.1"
   id="svg1"
   xml:space="preserve"
   xmlns:inkscape="http://www.inkscape.org/namespaces/inkscape"
   xmlns:sodipodi="http://sodipodi.sourceforge.net/DTD/sodipodi-0.dtd"
   xmlns="http://www.w3.org/2000/svg"
   xmlns:svg="http://www.w3.org/2000/svg"><sodipodi:namedview
     id="namedview1"
     pagecolor="#505050"
     bordercolor="#eeeeee"
     borderopacity="1"
     inkscape:showpageshadow="0"
     inkscape:pageopacity="0"
     inkscape:pagecheckerboard="0"
     inkscape:deskcolor="#505050"
     inkscape:document-units="mm" /><defs
     id="defs1" /><g
     inkscape:label="Capa 1"
     inkscape:groupmode="layer"
     id="layer1"
     transform="translate(-98.846209,-91.060651)"><path
       style="fill:#00ff00;stroke:none"
       d="m 164.68997,97.625368 v 18.785422 c 0,2.03939 0.72972,5.83788 -0.27193,7.64515 -0.62736,1.13191 -2.34412,1.75626 -3.43224,2.34797 -2.5736,1.39951 -5.12597,2.84699 -7.67291,4.29438 -1.39031,0.79009 -3.84149,1.64521 -3.32077,3.69906 0.32597,1.28569 1.67628,1.50288 2.7916,1.14306 2.6403,-0.8518 5.23321,-2.80727 7.67292,-4.13004 1.62882,-0.88311 4.19471,-3.13661 6.08541,-3.13661 2.58857,0 6.75499,3.45759 8.99584,4.73147 5.00093,2.84294 10.07304,5.55901 15.08125,8.38867 2.90638,1.64213 6.05613,3.97226 9.26041,4.9148 v 0.52917 c -2.87837,1.04745 -5.52207,2.94506 -8.20208,4.41707 -5.30312,2.91277 -10.61468,5.82272 -15.875,8.8121 -2.10836,1.19815 -4.23861,2.35905 -6.35,3.55186 -0.84446,0.47708 -2.04106,1.43196 -3.06271,1.35559 -2.77868,-0.20774 -6.93555,-3.68274 -9.37271,-5.05975 -7.60189,-4.29514 -15.61402,-10.09343 -23.81249,-13.07687 v -0.52917 c 1.96765,-0.57879 3.75985,-1.8725 5.55625,-2.84937 1.24652,-0.67785 2.46056,-1.4138 3.70416,-2.09686 1.21759,-0.66876 2.99333,-1.31458 3.8089,-2.48987 0.91138,-1.31334 -0.096,-3.13298 -1.69243,-3.06189 -1.45684,0.0649 -2.99886,1.37932 -4.23313,2.06828 -2.91047,1.62459 -5.83812,3.22356 -8.73125,4.87866 -1.26006,0.72086 -2.95757,1.40402 -3.65681,2.76139 -1.22616,2.38026 -0.31194,7.13258 -0.31194,9.7855 v 23.01875 c 0,2.6939 0.8866,7.25724 -0.15965,9.74058 -0.73818,1.75211 -4.34947,2.89374 -5.92577,3.79297 -5.74952,3.27995 -11.62325,7.19507 -17.72708,9.74978 l 1.21145,-4.23333 c 0.38754,-1.3593 1.36994,-3.34131 1.04445,-4.76128 -0.33424,-1.4581 -2.11953,-2.05393 -3.20338,-0.97545 -0.89005,0.88565 -1.09959,2.46048 -1.43377,3.62006 -0.84067,2.91702 -2.84454,7.01061 -2.585406,10.05416 0.335294,3.93806 8.557766,4.66214 11.581236,5.5191 1.36261,0.38621 3.46982,1.3793 4.5659,-0.0365 0.81972,-1.05887 0.20253,-2.4281 -0.87337,-2.99044 -2.23171,-1.16645 -5.69318,-2.00977 -8.19045,-2.22752 2.45418,-2.53108 6.7157,-4.06905 9.78959,-5.78389 l 9.525,-5.29166 c 1.11448,-0.62209 2.80267,-2.0968 4.12104,-2.07767 1.34172,0.0195 3.20055,1.58004 4.34562,2.23099 1.83842,1.0451 5.7294,2.34717 6.87182,4.14616 0.67894,1.06915 0.42012,3.39309 0.57776,4.6594 0.31745,2.55017 1.11583,5.08572 2.20486,7.40833 4.33359,9.24244 14.75272,15.48688 25.00598,14.50718 8.26007,-0.78926 16.21205,-5.23416 20.29043,-12.65509 1.50966,-2.74694 2.64172,-5.62693 3.14153,-8.73125 0.22843,-1.41881 -0.1071,-3.99247 0.65247,-5.18857 0.61119,-0.96245 2.20262,-1.50598 3.16765,-2.03602 2.41951,-1.32893 5.00064,-3.40963 7.628,-4.25131 1.57774,-0.50543 4.50483,1.94355 5.86575,2.68361 4.16731,2.26613 8.31125,4.59649 12.43541,6.9402 1.82754,1.03857 4.12005,1.88501 5.55625,3.43959 -2.46068,0.21456 -5.99169,1.08117 -8.19044,2.22752 -1.07664,0.56132 -1.69252,1.93231 -0.87337,2.99044 1.07554,1.38932 3.21481,0.46143 4.5659,0.0737 3.00728,-0.86301 11.21856,-1.65845 11.58123,-5.55625 0.28276,-3.0388 -1.74608,-7.1418 -2.5854,-10.05416 -0.33418,-1.15957 -0.54372,-2.73442 -1.43377,-3.62006 -1.08385,-1.07848 -2.86915,-0.48264 -3.20338,0.97545 -0.3255,1.41997 0.6569,3.40198 1.04445,4.76128 l 1.21145,4.23333 c -5.92224,-2.47871 -11.61502,-6.27693 -17.19791,-9.45069 -1.7263,-0.98136 -5.29737,-2.14146 -6.34266,-3.86545 -1.23128,-2.03074 -0.27193,-7.07821 -0.27193,-9.43803 0,-1.7448 0.89631,-8.54164 -2.64073,-7.24746 -1.72907,0.63267 -1.32802,2.88752 -1.32802,4.33705 0,3.8206 0.5649,8.13253 -0.0392,11.90216 -0.19722,1.23071 -1.34768,1.75648 -2.34205,2.30449 -2.44201,1.34581 -4.99649,3.26232 -7.67292,4.0496 -0.61993,-7.58998 -7.4277,-14.66518 -14.02292,-17.67993 -1.96367,-0.89762 -3.96429,-1.54418 -6.08541,-1.95089 -0.81404,-0.15609 -2.12281,-0.053 -2.63849,-0.82621 -2.7597,-4.13777 2.92275,-6.61692 5.5489,-8.11777 8.92394,-5.10005 17.94225,-10.7348 27.25209,-15.08145 v 6.61458 3.70417 c 0,1.25129 -0.32407,3.07475 0.31194,4.20454 0.73611,1.30759 2.60875,1.3076 3.34486,0 0.69912,-1.24188 0.31195,-3.35406 0.31195,-4.73371 v -10.58333 c 0,-1.5165 0.31501,-3.45207 -0.66514,-4.7378 -1.71019,-2.24338 -5.64509,-3.53159 -8.06611,-4.89949 -6.50448,-3.67505 -13.03107,-7.3232 -19.57917,-10.91936 -2.35078,-1.29103 -6.69397,-2.73099 -8.30702,-4.89969 -1.16092,-1.56084 -0.42423,-5.4697 -0.42423,-7.35199 V 97.625418 c 1.47664,1.04017 2.69334,2.429252 3.96875,3.704172 0.89611,0.89576 1.88384,2.21383 3.175,2.52701 1.55625,0.37748 2.75051,-1.03377 2.22059,-2.52701 -0.41099,-1.15811 -1.64229,-2.067482 -2.48517,-2.910422 -2.02238,-2.022507 -5.6485,-7.358518 -8.73125,-7.358518 -3.14296,0 -6.92908,5.555426 -8.99583,7.623108 -0.81527,0.81563 -2.06099,1.740262 -2.36043,2.910412 -0.36928,1.4431 0.98637,2.59572 2.36043,2.26243 1.29116,-0.31318 2.27889,-1.63125 3.175,-2.52701 1.2754,-1.27492 2.49212,-2.664012 3.96874,-3.704172 m -23.01875,96.572872 c -2.48214,-0.44794 -4.96125,-2.35876 -7.14375,-3.59189 -0.8569,-0.48416 -2.1049,-0.90672 -2.63848,-1.78675 -1.34836,-2.22386 -0.27193,-7.90348 -0.27193,-10.49636 v -27.78125 c 3.30345,0.97171 6.51999,3.38763 9.525,5.06403 5.90504,3.29424 11.84008,6.53871 17.72708,9.86492 3.04531,1.72063 7.89591,3.72638 5.66118,8.27027 -0.39034,0.79368 -1.74067,0.68325 -2.48618,0.82621 -2.30809,0.44258 -4.51993,1.12169 -6.61459,2.1969 -6.50275,3.33793 -12.74204,9.89299 -13.75833,17.43392 m 23.01875,-16.06405 c 2.68948,-0.32165 5.63437,0.067 8.20208,0.89562 16.96744,5.47577 20.75697,28.5199 5.82084,38.70878 -3.01542,2.05702 -6.44862,3.19318 -10.05417,3.63599 -21.65931,2.66006 -32.12613,-26.80271 -14.81667,-39.23388 3.22712,-2.31761 6.92951,-3.53788 10.84792,-4.00651 m -4.49792,16.8578 v 2.91041 c -1.83935,0 -6.19865,-0.799 -7.55797,0.61328 -1.06245,1.10385 -0.32357,2.5985 0.94747,3.08231 1.91407,0.72858 4.5896,0.27316 6.6105,0.27316 v 2.64583 c -1.67798,0 -9.78343,-0.87665 -7.8493,2.88164 0.51054,0.99204 1.56644,1.07226 2.55764,1.0861 2.28855,0.0319 6.33116,0.76218 8.14553,-0.89706 1.6349,-1.49511 1.11488,-4.25449 1.11488,-6.24568 0,-4.97605 1.20669,-10.31874 -5.29166,-10.31874 -1.70283,0 -5.58508,-0.742 -6.52639,1.08711 -1.93412,3.75829 6.17132,2.88164 7.8493,2.88164 m 9.26144,-3.81727 c -2.89541,0.84229 -1.8531,6.0052 -1.8531,8.31518 0,2.11205 -0.69847,5.76687 0.31195,7.66128 1.10899,2.07923 6.19473,1.65168 8.15471,1.13244 5.41237,-1.43384 6.74777,-10.14702 3.79706,-14.34977 -2.10278,-2.99502 -7.0207,-3.74528 -10.41062,-2.75913 m 2.11565,13.34226 v -9.52499 c 1.41473,0 3.29666,-0.33085 4.4626,0.6439 1.73379,1.44948 1.73379,6.78771 0,8.23719 -1.16594,0.97475 -3.04788,0.6439 -4.4626,0.6439 z"
       id="path7" /></g></svg>
