<?xml version="1.0" encoding="UTF-8" standalone="no"?>
<!-- Created with Inkscape (http://www.inkscape.org/) -->

<svg
   width="181.17206mm"
   height="170.88844mm"
   viewBox="0 0 181.17206 170.88844"
   version="1.1"
   id="svg1"
   xml:space="preserve"
   xmlns:inkscape="http://www.inkscape.org/namespaces/inkscape"
   xmlns:sodipodi="http://sodipodi.sourceforge.net/DTD/sodipodi-0.dtd"
   xmlns="http://www.w3.org/2000/svg"
   xmlns:svg="http://www.w3.org/2000/svg"><sodipodi:namedview
     id="namedview1"
     pagecolor="#505050"
     bordercolor="#eeeeee"
     borderopacity="1"
     inkscape:showpageshadow="0"
     inkscape:pageopacity="0"
     inkscape:pagecheckerboard="0"
     inkscape:deskcolor="#505050"
     inkscape:document-units="mm" /><defs
     id="defs1" /><g
     inkscape:label="Capa 1"
     inkscape:groupmode="layer"
     id="layer1"
     transform="translate(122.0157,-413.49968)"><path
       style="fill:#ffdd55;stroke:none"
       d="m -72.32569,577.05477 v -26.81111 c 0,-3.10432 -1.0182,-8.35727 0.21286,-11.21486 1.14287,-2.65286 7.56041,-4.96056 10.0177,-6.37123 9.33117,-5.35679 18.47443,-11.72944 28.22222,-16.28058 0,9.92313 0.64659,20.11386 -0.29289,29.98611 -0.23234,2.44149 0.66079,5.79268 -0.27275,8.07686 -1.06372,2.60272 -6.95994,4.68757 -9.31078,6.08843 -1.52762,0.91029 -3.22666,2.51413 -2.0546,4.45136 1.09893,1.81636 3.44052,0.90464 4.87546,0.12821 2.99669,-1.62147 7.87426,-6.22825 11.28889,-4.42279 9.93097,5.25092 19.56355,11.23257 29.28056001,16.87209 3.45992999,2.00806 8.36750999,6.24735 12.34721999,6.79369 3.43023,0.4709 8.7999,-4.12188 11.64167,-5.8143 7.8238,-4.65947 15.72515,-9.22008 23.63611,-13.73003 3.16196,-1.80259 8.42426,-3.73953 10.73713,-6.56504 1.07278,-1.31054 0.90392,-3.23849 0.90453,-4.82292 10e-4,-3.82488 0.60946,-8.23212 -0.0806,-11.99418 -0.29368,-1.60114 -1.72963,-2.93629 -3.43169,-2.42508 -1.87377,0.5628 -1.77675,2.60286 -1.7794,4.1887 -0.005,2.72787 1.24291,9.64847 -0.56564,11.77941 -2.45059,2.8874 -7.82779,4.70131 -11.07603,6.63581 -8.65559,5.15484 -17.56748,11.4683 -26.81111,15.45145 v -27.16389 c 0,-2.88318 -1.05072,-8.34913 0.36257,-10.8991 1.58938,-2.86765 7.76853,-5.0767 10.57354,-6.68698 9.17465,-5.26693 18.15714,-10.99801 27.51667,-15.92781 0,4.15758 -0.42624,8.56931 0.0384,12.69973 0.19275,1.71358 1.64091,3.16533 3.45237,2.45229 1.86402,-0.73372 1.79814,-2.90385 1.80091,-4.56869 v -11.64166 c 0,-1.60725 0.38334,-3.83559 -0.61463,-5.21763 -2.24646,-3.11107 -8.11344,-5.05406 -11.37981,-6.98968 -10.0117,-5.93287 -20.59513,-11.17103 -30.33208,-17.54035 -3.30749,-2.16356 -1.57899,-8.51928 -1.43181,-11.88012 0.31798,-7.2612 0.0139,-14.60349 0.0139,-21.87222 0,-3.34051 0.74508,-7.7158 -0.20197,-10.93095 -0.98394,-3.34043 -7.90073,-5.74557 -10.73414,-7.40969 -7.60525,-4.46673 -15.30222,-8.77901 -22.93056,-13.2063 -3.64489,-2.11541 -7.89773,-5.62502 -11.99444,-6.67528 -2.00099,-0.51299 -4.01684,1.13446 -5.64445,2.09897 -4.21346,2.49686 -8.451,4.96367 -12.7,7.39962 -6.84302,3.92311 -13.60869,7.9829 -20.46111,11.88937 -2.09707,1.19551 -6.87616,2.92505 -7.85202,5.22961 -1.1223,2.65038 -0.19714,6.98758 -0.26704,9.84076 -0.19276,7.86811 -0.3476,15.74347 -0.3476,23.63611 0,2.75728 1.08332,8.43524 -0.36258,10.82015 -1.70356,2.80989 -7.76782,4.86579 -10.57353,6.53673 -7.36087,4.38377 -14.86429,8.52755 -22.225,12.91123 -2.95112,1.75754 -6.89983,3.24936 -9.3772,5.63955 -2.40617,2.32151 -1.20614,8.64446 -1.20614,11.71734 v 24.34166 c 0,3.45012 -0.77019,7.95835 0.15298,11.28754 0.55235,1.9919 2.81052,2.84478 4.43313,3.81113 3.96473,2.36121 8.0244,4.56085 11.99445,6.91347 7.00506,4.15115 14.10682,8.1499 21.16666,12.20731 2.41025,1.38521 5.96432,4.49079 8.81945,4.51099 3.9341,0.0278 9.71129,-5.0141 13.05278,-6.97662 2.53896,-1.49119 8.39087,-3.49342 9.50758,-6.38675 1.10969,-2.87516 -2.16494,-3.81248 -4.21592,-2.85135 -5.37774,2.52013 -10.26788,6.11399 -15.52222,8.88151 m 79.375,-135.81945 v 0.35278 c -6.15080999,3.76448 -12.5172,7.17274 -18.69722,10.88847 -1.86979,1.12421 -4.69581,4.29379 -1.05289,5.46398 2.00384,0.64368 4.71613,-1.76486 6.34456,-2.6932 5.09329,-2.90362 10.60388,-7.41886 16.22777,-9.07314 v 26.81111 c 0,3.1687 0.98898,8.31119 -0.21286,11.25187 -1.07544,2.63139 -7.25385,4.9142 -9.66490999,6.28794 C -9.17812,495.75095 -18.67446,503.24572 -28.58124,506.85199 v -25.4 c 0,-3.93476 -0.61361,-8.43479 0.0522,-12.31047 0.50787,-2.95613 10.02555,-4.42532 7.72601,-8.19502 -2.80312,-4.59522 -8.0517,3.76379 -11.65882,2.13001 -7.91812,-3.58637 -15.38635,-8.9008 -22.93056,-13.2259 -4.60209,-2.63838 -10.5937,-4.99131 -14.46388,-8.61529 9.2491,-5.45452 18.55649,-10.82864 27.86944,-16.17497 2.63182,-1.51086 7.50062,-5.81155 10.58333,-5.67738 3.50777,0.15269 8.63852,4.5625 11.64167,6.32632 8.90164,5.22812 18.00558,10.13677 26.81111,15.52603 m -40.92222,65.61667 c -3.48763,-1.02589 -6.73093,-3.54855 -9.87778,-5.34474 -6.36565,-3.63349 -12.68156,-7.3536 -19.05,-10.98212 -2.33948,-1.33295 -8.51277,-3.57518 -9.66491,-6.0356 -1.27292,-2.71833 -0.21287,-8.15508 -0.21287,-11.15143 v -27.16389 c 3.2404,0.74142 6.29924,3.20547 9.17223,4.83981 6.61382,3.76238 13.15628,7.65273 19.75555,11.44078 2.39037,1.37209 8.51731,3.49339 9.66491,6.06037 1.24901,2.79381 0.21287,8.11904 0.21287,11.17293 v 27.16389 m -2.82222,4.58611 v 0.35278 c -9.15944,5.60588 -18.5586,10.87667 -27.86945,16.22778 -2.55338,1.46748 -7.60575,5.85405 -10.58333,5.62946 -3.49141,-0.26333 -8.26886,-4.455 -11.28889,-6.1864 -9.06675,-5.19799 -18.16231,-10.36229 -27.16389,-15.67084 2.39384,-2.42686 6.23396,-3.92256 9.17222,-5.64826 6.33451,-3.72038 12.69634,-7.3945 19.05,-11.08201 2.48296,-1.44105 7.32705,-5.63311 10.23056,-5.47105 3.40849,0.19025 8.33484,4.48414 11.28889,6.17769 9.06597,5.19753 18.16307,10.36275 27.16389,15.67085 m 87.48889,0 v 0.35278 c -8.94832,5.92112 -18.6503,10.80808 -27.86945,16.29855 -2.46705,1.46925 -7.67295,5.85425 -10.58333,5.54209 -3.5653,-0.38239 -8.18548,-4.45391 -11.28889,-6.21933 -9.06657,-5.15766 -17.93473,-10.76017 -27.16389,-15.62131 7.78502,-6.76529 18.98692,-11.17693 27.86944,-16.44064 2.61874,-1.55185 7.50705,-5.77687 10.58334,-5.73592 3.28129,0.0437 8.11964,4.2879 10.93611,5.8957 9.1943,5.24866 18.48721,10.40074 27.51667,15.92808 m -128.41112,65.61667 c -3.20846,-0.7359 -6.31966,-3.218 -9.17222,-4.83981 -6.61537,-3.76113 -13.15597,-7.65256 -19.75555,-11.44078 -2.41706,-1.38741 -8.47102,-3.48747 -9.66492,-6.07806 -1.26449,-2.74377 -0.21286,-8.1397 -0.21286,-11.15524 v -27.16389 c 3.49345,1.02761 6.73255,3.53908 9.87778,5.34447 6.35696,3.64896 12.67789,7.35958 19.05,10.9824 2.44704,1.39123 8.5704,3.60006 9.66491,6.28766 1.19959,2.94561 0.21286,8.07973 0.21286,11.25214 v 26.81111 m 49.38889,-60.67778 c 9.45404,5.03174 18.57789,10.75227 27.86945001,16.07915 2.48851999,1.42668 8.79091999,3.61762 10.01768999,6.2795 1.26449,2.74376 0.21286,8.1397 0.21286,11.15524 v 27.16389 c -3.80649,-1.11969 -7.53395,-3.90029 -10.93611,-5.92645 -5.71668,-3.40457 -11.51547,-6.68897 -17.28611,-10.00136 -2.73401,-1.56935 -8.60936,-3.61303 -10.22076,-6.37123 -1.27742,-2.18653 -0.36257,-6.95879 -0.36257,-9.45096 v -19.40278 c 0,-2.78433 -0.36652,-6.97012 0.70555,-9.525 z"
       id="path11" /></g></svg>
