<?xml version="1.0" encoding="UTF-8" standalone="no"?>
<!-- Created with Inkscape (http://www.inkscape.org/) -->

<svg
   width="135.67207mm"
   height="135.46814mm"
   viewBox="0 0 135.67207 135.46814"
   version="1.1"
   id="svg1"
   xml:space="preserve"
   xmlns:inkscape="http://www.inkscape.org/namespaces/inkscape"
   xmlns:sodipodi="http://sodipodi.sourceforge.net/DTD/sodipodi-0.dtd"
   xmlns="http://www.w3.org/2000/svg"
   xmlns:svg="http://www.w3.org/2000/svg"><sodipodi:namedview
     id="namedview1"
     pagecolor="#505050"
     bordercolor="#eeeeee"
     borderopacity="1"
     inkscape:showpageshadow="0"
     inkscape:pageopacity="0"
     inkscape:pagecheckerboard="0"
     inkscape:deskcolor="#505050"
     inkscape:document-units="mm" /><defs
     id="defs1" /><g
     inkscape:label="Capa 1"
     inkscape:groupmode="layer"
     id="layer1"
     transform="translate(-137.61133,-217.03419)"><path
       style="fill:#ff00ff;stroke:none"
       d="m 161.32328,283.28685 c -5.27637,-2.19382 -10.31782,-3.01876 -15.61042,-0.17884 -9.52827,5.11271 -10.85004,18.68615 -2.91021,25.79748 8.58183,7.68633 22.8618,3.54269 25.88691,-7.62698 1.83908,-6.79043 0.57122,-15.22122 0.57122,-22.225 v -44.71458 c 4.47685,4.86041 8.87973,9.50485 14.02292,13.68933 4.11279,3.34615 8.77886,6.02759 9.67342,11.71067 0.83098,5.27922 -2.62508,10.77315 -7.55675,12.68183 -1.99692,0.77287 -4.51893,0.36678 -6.3253,1.48216 -2.1807,1.34653 -2.42003,4.60035 -0.4667,6.2618 2.74274,2.3329 8.21568,0.44175 11.02533,-0.91501 8.54792,-4.12775 13.08028,-13.73041 10.72134,-22.95036 -2.06023,-8.05246 -9.0516,-11.98884 -14.95467,-17.04664 -5.4442,-4.66463 -9.88247,-10.08018 -13.84653,-16.02628 -1.77689,-2.66534 -5.85931,-9.33901 -9.40149,-4.44892 -1.1323,1.56319 -0.82907,3.69033 -0.82907,5.50726 v 12.17083 46.83125 m 47.625,39.6875 c -5.13983,-2.13707 -9.84068,-2.93703 -15.08125,-0.44445 -9.30018,4.42346 -11.45682,17.26038 -4.71656,24.78591 7.86889,8.78565 22.5532,5.9468 26.72618,-5.02688 2.08432,-5.48113 1.00913,-12.48364 1.00913,-18.25625 v -35.98333 l 17.4625,-4.83927 30.69167,-8.65448 v 32.54375 c -5.27635,-2.19382 -10.31786,-3.01878 -15.61042,-0.17884 -9.52822,5.11274 -10.85009,18.68612 -2.91021,25.79748 8.47134,7.58738 22.29135,3.67582 25.73154,-7.09781 1.77124,-5.54701 0.72659,-12.49019 0.72659,-18.25625 V 271.3806 258.15143 c 0,-1.97384 0.41483,-4.50244 -0.40566,-6.34612 -2.15946,-4.85236 -10.85269,-0.50019 -14.41101,0.52529 -11.79988,3.40064 -23.63955,6.66831 -35.45417,10.01701 l -8.73125,2.49517 c -1.52732,0.43407 -3.20205,0.71202 -4.19801,2.0889 -1.04395,1.44321 -0.82907,3.29816 -0.82907,4.97808 v 10.31875 z"
       id="path9" /></g></svg>
