<?xml version="1.0" encoding="UTF-8" standalone="no"?>
<!-- Created with Inkscape (http://www.inkscape.org/) -->

<svg
   width="128.63734mm"
   height="129.68004mm"
   viewBox="0 0 128.63734 129.68004"
   version="1.1"
   id="svg1"
   xml:space="preserve"
   xmlns:inkscape="http://www.inkscape.org/namespaces/inkscape"
   xmlns:sodipodi="http://sodipodi.sourceforge.net/DTD/sodipodi-0.dtd"
   xmlns="http://www.w3.org/2000/svg"
   xmlns:svg="http://www.w3.org/2000/svg"><sodipodi:namedview
     id="namedview1"
     pagecolor="#505050"
     bordercolor="#eeeeee"
     borderopacity="1"
     inkscape:showpageshadow="0"
     inkscape:pageopacity="0"
     inkscape:pagecheckerboard="0"
     inkscape:deskcolor="#505050"
     inkscape:document-units="mm" /><defs
     id="defs1" /><g
     inkscape:label="Capa 1"
     inkscape:groupmode="layer"
     id="layer1"
     transform="translate(-146.34154,-401.74291)"><path
       style="fill:#ff6600;stroke:none"
       d="m 170.89979,401.74293 v 0.26458 c 3.06745,2.38643 4.63357,6.19654 5.82063,9.78958 2.16042,6.53928 3.17722,13.46466 5.8241,19.84375 2.3853,5.74868 6.3362,10.5495 12.96152,10.8375 3.95722,0.17202 7.37322,-1.48473 11.1125,-2.37083 0.73749,2.56001 2.29366,4.94508 3.3273,7.40833 2.79448,6.65949 6.11472,15.68709 5.89881,23.01875 -0.0834,2.83368 -1.27559,5.57695 -1.28841,8.46667 -0.005,1.17235 -0.16906,2.67209 1.08692,3.27748 2.35242,1.13391 2.93673,-1.63592 3.10149,-3.27748 0.69189,-6.8932 3.11215,-16.15404 8.38297,-21.09971 1.41985,-1.33226 5.86547,1.77705 7.53675,2.30673 4.71265,1.4936 9.82813,1.42687 13.75833,-1.92415 10.36136,-8.83443 8.37551,-26.68875 19.57917,-34.58079 v -0.26458 c -14.4441,0 -35.52819,1.78794 -43.18404,16.40416 -1.44761,2.76372 -2.17976,6.16273 -1.63242,9.26042 0.24362,1.37874 1.44167,3.32917 1.32823,4.65022 -0.0888,1.03446 -1.36488,2.20422 -1.94232,3.0227 -1.34528,1.90683 -2.61847,3.92694 -3.51737,6.08541 -2.03409,-5.42184 -2.80121,-11.25122 -5.02994,-16.66875 -0.92005,-2.23642 -3.66058,-5.83604 -3.66211,-8.20208 -9.4e-4,-1.45783 1.6197,-3.11065 2.11299,-4.49792 1.12387,-3.16065 1.09245,-6.90328 -0.0498,-10.05416 -5.62026,-15.50329 -26.97116,-20.54718 -41.52529,-21.69583 m -21.16667,71.55386 c -2.90416,0.47248 -3.17483,2.64655 -3.175,5.1753 v 14.02292 24.07708 c 0,2.44428 -0.8689,7.00328 0.87399,8.96051 1.08742,1.22116 2.66521,1.09356 4.1531,1.09365 3.55865,2.3e-4 7.60592,0.54077 11.11229,-0.0594 2.4177,-0.41383 2.64526,-2.69242 2.64604,-4.70309 v -14.02291 -24.34167 c 0,-2.49243 0.90339,-7.21974 -0.90461,-9.20019 -1.03209,-1.13054 -2.71286,-1.1163 -4.12247,-1.11856 -3.42791,-0.006 -7.19762,-0.43445 -10.58334,0.11637 m 19.84375,44.8628 c 3.14305,-0.42324 5.8184,-1.05668 8.99584,-0.29133 10.45045,2.5172 18.61857,11.86711 29.36874,13.40718 6.21214,0.88997 13.64141,-2.47186 19.57917,-4.08 9.78156,-2.64918 19.60515,-5.15124 29.36875,-7.86524 4.19174,-1.16518 9.01784,-1.80229 12.96458,-3.63761 6.54245,-3.04237 6.93134,-12.79694 0.52917,-16.23268 -3.59623,-1.92992 -6.91,-0.77864 -10.58333,0.14537 -6.54293,1.64583 -13.08864,3.40622 -19.57917,5.24838 -2.64957,0.75201 -6.6271,1.00186 -8.92234,2.53171 -1.11459,0.74291 -1.53464,2.79551 -2.30653,3.89505 -1.75614,2.50159 -4.30459,4.32906 -7.29196,5.05362 -5.59314,1.35657 -10.25018,-2.10419 -14.81667,-4.78618 -3.15271,-1.85164 -6.51043,-3.51386 -9.5248,-5.58381 -2.26407,-1.55472 -1.73837,-5.23265 1.32272,-3.93731 6.17741,2.61404 11.33825,7.88472 17.72708,10.01967 8.60012,2.87389 13.21108,-7.84892 9.07525,-14.25974 -2.1148,-3.27808 -6.35122,-4.88864 -9.60442,-6.82608 -5.8739,-3.49821 -11.86172,-6.80698 -17.72708,-10.31896 -3.98011,-2.38316 -8.09021,-5.26678 -12.96458,-5.05239 -4.1129,0.18088 -7.91993,2.00227 -11.64167,3.60228 -1.04289,0.44836 -3.02654,0.82074 -3.69681,1.7939 -0.49133,0.71336 -0.27194,1.95954 -0.27194,2.77834 v 7.14375 z"
       id="path12" /></g></svg>
