<?xml version="1.0" encoding="UTF-8" standalone="no"?>
<!-- Created with Inkscape (http://www.inkscape.org/) -->

<svg
   width="135.96181mm"
   height="144.83588mm"
   viewBox="0 0 135.96181 144.83588"
   version="1.1"
   id="svg1"
   xml:space="preserve"
   xmlns:inkscape="http://www.inkscape.org/namespaces/inkscape"
   xmlns:sodipodi="http://sodipodi.sourceforge.net/DTD/sodipodi-0.dtd"
   xmlns="http://www.w3.org/2000/svg"
   xmlns:svg="http://www.w3.org/2000/svg"><sodipodi:namedview
     id="namedview1"
     pagecolor="#505050"
     bordercolor="#eeeeee"
     borderopacity="1"
     inkscape:showpageshadow="0"
     inkscape:pageopacity="0"
     inkscape:pagecheckerboard="0"
     inkscape:deskcolor="#505050"
     inkscape:document-units="mm" /><defs
     id="defs1" /><g
     inkscape:label="Capa 1"
     inkscape:groupmode="layer"
     id="layer1"
     transform="translate(12.181546,-231.48605)"><path
       style="fill:#ff6600;stroke:none"
       d="m -5.1627644,367.72479 c -2.48594,-6.44425 -3.15705,-13.66024 -1.03177,-20.32 0.63418,-1.98728 3.80019,-7.0411 1.75605,-8.77894 -3.6727,-3.12235 -6.1449196,6.364 -6.6805696,8.49672 -1.78066,7.08981 -1.25443,14.28378 1.06465,21.16666 0.7216196,2.14173 1.8993396,5.7755 3.8150096,7.12829 1.17668,0.83095 3.10068,0.49171 4.46329,0.49171 h 10.16 39.2288894 c 4.133373,0 8.286393,0.11869 12.417777,-0.004 1.513654,-0.0451 3.195265,-0.71455 3.047169,-2.53564 -0.140163,-1.7235 -1.880961,-2.21518 -3.329391,-2.25364 -3.945177,-0.10477 -7.906654,-0.004 -11.853333,-0.004 H -1.4938844 c 1.59278003,-2.72635 3.05702,-5.36177 5.92667,-6.95712 6.7431354,-3.74878 14.7649794,-1.93263 20.8363164,-7.8001 2.878519,-2.78185 4.547969,-6.96545 4.820644,-10.925 0.106462,-1.54595 -0.918639,-4.56465 -0.06141,-5.83477 1.535811,-2.27552 5.711581,-4.02998 7.988892,-5.54818 6.644465,-4.42966 14.328238,-8.51328 20.32,-13.78687 1.871444,-1.64713 5.772515,-4.9931 6.139203,-7.56795 0.244532,-1.71711 -1.367772,-3.16876 -3.034759,-2.43896 -1.916886,0.83921 -3.633869,3.30698 -4.797778,4.97896 h -0.282222 l -7.902222,-8.18445 -8.466666,-8.18444 c 18.358939,-18.20687 38.653729,-34.57662 57.573331,-52.20414 4.864355,-4.53215 13.102145,-15.43361 19.609215,-7.34061 0.79158,0.9845 1.42448,2.1411 1.69333,3.38253 1.09616,5.06146 -5.83099,9.88548 -8.765,13.26444 -9.89729,11.39826 -20.41473,22.2606 -30.398117,33.58445 -3.184344,3.6119 -6.685698,6.99612 -9.733178,10.72444 -1.085265,1.32772 -1.518357,3.59716 0.505646,4.34418 2.09423,0.77293 3.591529,-1.67024 4.792549,-2.93307 3.762708,-3.95633 7.24408,-8.17909 11.006667,-12.13555 8.031921,-8.44578 15.659863,-17.31493 23.472353,-25.96445 4.06956,-4.50606 9.32532,-8.93423 12.51991,-14.11161 3.2043,-5.1931 0.97579,-11.80668 -3.53671,-15.41529 -6.60784,-5.28424 -12.76738,-1.53339 -18.06222,3.23204 -4.241661,3.81755 -8.391847,7.75709 -12.699999,11.49904 -11.973567,10.39992 -23.508633,21.33274 -35.277777,31.96296 -5.826862,5.26299 -12.531667,10.2499 -17.727952,16.1348 -6.338489,7.17847 -11.371549,16.31229 -16.703375,24.27089 -0.793974,1.18513 -1.881276,3.53888 -3.196123,4.17759 -1.282225,0.62286 -3.831077,0.004 -5.2703284,0.0669 -3.69114,0.16186 -10.57908997,2.29508 -11.96417,6.19778 -0.66063,1.86143 1.11955,3.52109 2.93306003,2.898 2.87272997,-0.987 4.70747997,-3.49378 7.90221997,-4.16409 7.8270454,-1.64221 15.7517594,4.33473 16.6021164,12.27275 0.170661,1.59311 0.08028,3.25656 -0.354083,4.79778 -2.947391,10.4581 -13.431318,8.49497 -21.3280334,11.81827 -4.07120997,1.71336 -6.56067,4.79192 -8.74888,8.50173 M 37.170563,302.24928 c 5.128773,5.12876 11.630646,10.16146 15.804444,16.08666 l -16.933333,11.38296 -8.466666,5.26815 -4.797993,-5.59631 -2.507771,-2.33226 4.016219,-6.46476 8.531998,-12.41778 4.353102,-5.92666 m 36.124658,69.0238 c -2.238244,0.64647 -2.650036,3.66629 -0.271112,4.45197 3.710601,1.22547 9.346544,0.18422 13.253119,0.18422 1.425632,0 3.487659,0.36725 4.782317,-0.33274 2.353026,-1.27222 1.103645,-4.02076 -1.113429,-4.37902 -3.420066,-0.55264 -7.261193,-0.086 -10.724444,-0.086 -1.851334,0 -4.135768,-0.35562 -5.926451,0.16159 z"
       id="path8" /></g></svg>
