<?xml version="1.0" encoding="UTF-8" standalone="no"?>
<!-- Created with Inkscape (http://www.inkscape.org/) -->

<svg
   width="144.51398mm"
   height="111.61054mm"
   viewBox="0 0 144.51398 111.61054"
   version="1.1"
   id="svg1"
   xml:space="preserve"
   xmlns:inkscape="http://www.inkscape.org/namespaces/inkscape"
   xmlns:sodipodi="http://sodipodi.sourceforge.net/DTD/sodipodi-0.dtd"
   xmlns="http://www.w3.org/2000/svg"
   xmlns:svg="http://www.w3.org/2000/svg"><sodipodi:namedview
     id="namedview1"
     pagecolor="#505050"
     bordercolor="#eeeeee"
     borderopacity="1"
     inkscape:showpageshadow="0"
     inkscape:pageopacity="0"
     inkscape:pagecheckerboard="0"
     inkscape:deskcolor="#505050"
     inkscape:document-units="mm" /><defs
     id="defs1" /><g
     inkscape:label="Capa 1"
     inkscape:groupmode="layer"
     id="layer1"
     transform="translate(272.46223,-181.98107)"><path
       style="fill:#00ffff;stroke:none"
       d="m -257.48823,182.32076 c -2.99818,0.69333 -3.3865,3.12926 -3.38667,5.77728 v 14.95777 37.25334 c 0,5.99996 1.156,13.33395 -0.11019,19.19111 -0.54078,2.50156 -2.34844,5.05662 -3.48901,7.33777 -2.81222,5.62445 -7.97191,12.21973 -7.97191,18.62667 0,2.12362 -0.25303,4.44526 1.23995,6.17927 2.12398,2.46688 6.30993,1.72295 9.20227,1.72295 h 23.98889 73.66 22.29555 c 3.32064,0 7.54216,0.68876 10.72445,-0.34559 2.83446,-0.9213 3.38565,-3.50744 3.38666,-6.14552 0.002,-5.05475 -2.07336,-8.5229 -4.30301,-12.98222 -2.2302,-4.46038 -6.09993,-9.49927 -7.15791,-14.39333 -1.04563,-4.83699 -0.11019,-10.85185 -0.11019,-15.80445 v -33.02 -19.47333 c 0,-2.30324 0.63499,-5.68454 -1.0041,-7.55967 -1.81475,-2.07609 -5.29439,-1.47144 -7.74479,-1.47144 h -20.60222 -60.39555 -18.90889 c -2.94266,0 -6.44046,-0.51497 -9.31333,0.14939 m 113.73555,4.08394 v 71.68445 H -256.64156 V 186.4047 h 112.88888 m -104.14,8.74889 h 95.39111 v 18.62667 c 0,1.76657 -0.0178,6.11556 3.07374,4.62487 1.92123,-0.92639 1.15959,-4.85221 1.15959,-6.60043 v -15.52222 c -9.3e-4,-2.42246 -0.32965,-4.6919 -3.10444,-5.23004 -3.374,-0.65435 -7.29133,-0.13218 -10.72444,-0.13218 h -21.16667 c -21.34962,0 -42.71656,-0.25424 -64.06444,10e-4 -1.57565,0.0189 -3.31396,0.22964 -4.20807,1.70466 -0.95815,1.58066 -0.58971,3.86588 -0.58971,5.63204 v 12.7 c 0,1.92033 -0.92085,6.77746 1.42353,7.55183 2.98202,0.98499 2.8098,-2.96707 2.8098,-4.72961 v -18.62667 m 95.39111,54.18667 h -95.39111 v -18.90889 c 0,-1.63061 -0.22215,-5.7849 -3.07374,-4.22441 -1.83003,1.00146 -1.15959,4.47509 -1.15959,6.19996 v 15.80445 c 1.3e-4,2.08922 0.0228,4.66515 2.54109,5.25094 3.26347,0.75915 7.37408,0.11128 10.72335,0.11128 h 22.57778 c 21.42284,0 43.24629,1.22295 64.62889,-0.0122 2.78887,-0.16109 3.38282,-2.39225 3.38666,-4.78558 v -16.08666 c 0,-1.79354 0.76316,-5.81153 -1.42352,-6.59869 -2.91643,-1.04985 -2.80981,2.95303 -2.80981,4.62313 v 18.62667 m 18.90889,31.60888 h -46.56667 c -0.62891,-3.04708 -1.27428,-8.6262 -3.95633,-10.54021 -1.89483,-1.35222 -5.12194,-0.74867 -7.33255,-0.74867 h -17.21556 c -2.27252,0 -5.66913,-0.63981 -7.61477,0.74867 -2.68205,1.91401 -3.32742,7.49313 -3.95634,10.54021 h -46.56666 l 6.84302,-13.82888 2.81263,-4.62749 7.27768,-0.17029 h 17.49778 61.24222 19.47333 l 8.40656,0.17029 2.81264,4.62749 6.84302,13.82888 m -50.8,0 h -31.60889 l 2.13474,-6.76549 5.76749,-0.29006 h 15.52222 l 6.04971,0.29006 2.13473,6.76549 m 52.21111,4.23334 -0.45251,3.66105 -7.44971,0.29006 h -20.88444 -82.40889 -17.78 l -6.60304,-0.29006 -0.45251,-3.66105 z"
       id="path10" /></g></svg>
