<?xml version="1.0" encoding="UTF-8" standalone="no"?>
<!-- Created with Inkscape (http://www.inkscape.org/) -->

<svg
   width="108.18437mm"
   height="107.68034mm"
   viewBox="0 0 108.18437 107.68034"
   version="1.1"
   id="svg1"
   xml:space="preserve"
   xmlns:inkscape="http://www.inkscape.org/namespaces/inkscape"
   xmlns:sodipodi="http://sodipodi.sourceforge.net/DTD/sodipodi-0.dtd"
   xmlns="http://www.w3.org/2000/svg"
   xmlns:svg="http://www.w3.org/2000/svg"><sodipodi:namedview
     id="namedview1"
     pagecolor="#505050"
     bordercolor="#eeeeee"
     borderopacity="1"
     inkscape:showpageshadow="0"
     inkscape:pageopacity="0"
     inkscape:pagecheckerboard="0"
     inkscape:deskcolor="#505050"
     inkscape:document-units="mm" /><defs
     id="defs1" /><g
     inkscape:label="Capa 1"
     inkscape:groupmode="layer"
     id="layer1"
     transform="translate(-91.012041,-110.43901)"><path
       style="fill:#ffff00;stroke:none"
       d="m 96.446171,110.72417 c -7.03497,1.50362 -5.02708,11.78534 -5.02708,17.06092 v 45.77292 c 0,4.58223 -1.64361,13.26114 1.67467,16.90557 1.99191,2.18769 4.91048,1.87984 7.585739,1.87984 h 16.93334 52.65208 16.13958 c 2.48415,0 5.53567,0.47397 7.9375,-0.20864 6.51865,-1.85265 4.49792,-12.12217 4.49792,-17.25386 v -46.30208 c 0,-4.53825 1.65465,-13.16215 -2.16566,-16.48787 -2.18553,-1.90258 -5.20851,-1.50379 -7.88851,-1.50379 h -17.19791 -50.8 -16.13959 c -2.61865,0 -5.635919,-0.41149 -8.202079,0.13699 m 96.572919,5.41926 v 70.64374 H 97.239921 v -70.64374 h 95.779169 m -65.61564,11.55082 c -3.35463,1.02048 -2.11769,7.73863 -2.11769,10.40959 v 29.10417 c 0,2.67433 -0.84162,9.0945 3.70416,8.09776 3.12687,-0.68562 6.48306,-3.53397 9.26042,-5.11303 6.90413,-3.92531 13.73726,-7.97474 20.6375,-11.90626 2.37085,-1.35083 8.57381,-3.52906 8.69185,-6.68889 0.11649,-3.11836 -5.89314,-5.27919 -8.16268,-6.57477 -7.77998,-4.44127 -15.51156,-8.96653 -23.28334,-13.42209 -2.12462,-1.21806 -6.16357,-4.68727 -8.73022,-3.90648 m 3.96772,7.49918 27.78125,16.13958 v 0.26458 l -16.13958,9.3727 -11.90625,6.76688 v -22.75416 c 0,-2.81357 -0.82225,-7.19951 0.26458,-9.78958 m -34.131249,71.43749 c -1.28185,0 -3.05581,-0.30964 -4.2217,0.31195 -1.73633,0.92573 -1.88001,3.62068 -0.24743,4.71268 1.23735,0.82765 3.05573,0.53162 4.46913,0.53162 0,1.53374 -0.3824,3.71318 0.89807,4.85437 2.140429,1.90761 8.785049,0.70206 11.537349,0.70188 1.13668,-7e-5 2.4596,0.16837 3.37935,-0.6439 1.33503,-1.17902 1.11856,-3.31008 1.11856,-4.91235 h 64.82292 15.08125 c 1.94905,-1.3e-4 4.44526,-0.0949 4.55896,-2.64583 0.11861,-2.66076 -2.27238,-2.91029 -4.29438,-2.91042 h -15.34583 -64.82292 c 0,-1.61014 0.23024,-3.75413 -1.09732,-4.944 -2.28701,-2.04978 -8.96228,-0.94524 -11.86726,-0.87296 -1.15975,0.0289 -2.508869,0.19074 -3.324849,1.11469 -1.03099,1.16742 -0.6439,3.2603 -0.6439,4.70227 m 11.112499,0 v 5.55625 h -5.55625 v -5.55625 z"
       id="path4" /></g></svg>
